<svg xmlns="http://www.w3.org/2000/svg" class="w-6 h-6" width="24" height="24" viewBox="0 0 24 24" fill="none"><path d="M17 15V9C17 8.73478 16.8946 8.48051 16.707 8.29297C16.5429 8.12883 16.3276 8.02757 16.0986 8.00488L16 8H15C14.4477 8 14 7.55228 14 7C14 6.44772 14.4477 6 15 6H16L16.2969 6.01465C16.9835 6.08291 17.6289 6.38671 18.1211 6.87891C18.6837 7.44152 19 8.20435 19 9V15C19 15.7957 18.6837 16.5585 18.1211 17.1211C17.5585 17.6837 16.7957 18 16 18H14C13.4477 18 13 17.5523 13 17C13 16.4477 13.4477 16 14 16H16C16.2652 16 16.5195 15.8946 16.707 15.707C16.8946 15.5195 17 15.2652 17 15Z" fill="#00D0FFFF" style="fill-opacity:1;"/><path d="M1 15V9C1 8.20435 1.3163 7.44152 1.87891 6.87891C2.44152 6.3163 3.20435 6 4 6H6C6.55228 6 7 6.44772 7 7C7 7.55228 6.55228 8 6 8H4C3.73478 8 3.48051 8.10543 3.29297 8.29297C3.10543 8.48051 3 8.73478 3 9V15L3.00488 15.0986C3.02757 15.3276 3.12883 15.5429 3.29297 15.707C3.48051 15.8946 3.73478 16 4 16H5C5.55228 16 6 16.4477 6 17C6 17.5523 5.55228 18 5 18H4C3.20435 18 2.44152 17.6837 1.87891 17.1211C1.3163 16.5585 1 15.7956 1 15Z" fill="#00D0FFFF" style="fill-opacity:1;"/><path d="M10.1993 6.40037C10.5026 5.99424 11.0707 5.87614 11.5147 6.14255C11.9585 6.40895 12.1207 6.96513 11.9053 7.4238L11.8575 7.51462L9.76665 11H12C12.3602 11 12.6926 11.1935 12.8702 11.5068C13.0255 11.7811 13.0416 12.1106 12.919 12.3955L12.8575 12.5146L9.85747 17.5146C9.57328 17.9881 8.95893 18.1415 8.4854 17.8574C8.01193 17.5732 7.8585 16.9589 8.14262 16.4853L10.2334 13H8.00005C7.63992 13 7.30749 12.8064 7.12993 12.4931C6.95242 12.1796 6.95726 11.7943 7.14262 11.4853L10.1426 6.48533L10.1993 6.40037Z" fill="#00D0FFFF" style="fill-opacity:1;"/><path d="M21 13V11C21 10.4477 21.4477 10 22 10C22.5523 10 23 10.4477 23 11V13C23 13.5523 22.5523 14 22 14C21.4477 14 21 13.5523 21 13Z" fill="#00D0FFFF" style="fill-opacity:1;"/></svg>