<svg viewBox = "0 0 88 88" width="88" height="88" xmlns="http://www.w3.org/2000/svg"><g transform="matrix(1 0 0 1 44 44)"  ><g style=""   ><g transform="matrix(1 0 0 1 0 -2.3)"  ><path style="stroke: none; stroke-width: 1; stroke-dasharray: none; stroke-linecap: butt; stroke-dashoffset: 0; stroke-linejoin: miter; stroke-miterlimit: 4; fill: rgb(99,106,232); fill-rule: nonzero; opacity: 1;"  transform=" translate(-44, -41.7)" d="M 63.4527 7.00229 C 63.4527 7.00103 63.4517 7 63.4504 7 L 24.5473 7 C 13.1974 7 4 16.1932 4 27.538 L 4 42.6628 C 4 54.003 13.1974 63.2008 24.5473 63.2008 L 49.1609 63.2008 C 49.8859 63.2008 50.5864 63.4633 51.1328 63.9398 L 64.5758 75.6639 C 66.5165 77.3565 69.5476 75.9781 69.5476 73.403 L 69.5476 64.4938 C 69.5476 63.1793 70.4136 62.0382 71.6197 61.5153 C 78.9038 58.3578 84 51.1085 84 42.6674 L 84 27.5426 C 84 16.2032 74.8038 7.00583 63.455 7.00459 C 63.4537 7.00459 63.4527 7.00356 63.4527 7.00229 L 63.4527 7.00229 Z" stroke-linecap="round" /></g><g transform="matrix(1 0 0 1 0.16 1.45)"  ><path style="stroke: none; stroke-width: 1; stroke-dasharray: none; stroke-linecap: butt; stroke-dashoffset: 0; stroke-linejoin: miter; stroke-miterlimit: 4; fill: rgb(232,97,140); fill-rule: evenodd; opacity: 1;"  transform=" translate(-44.16, -45.45)" d="M 18.7963 38.4896 C 19.9016 37.2843 21.7758 37.2022 22.9826 38.3061 C 26.8624 41.8553 33.233 45.9624 40.6833 47.13 C 47.9632 48.2708 56.5471 46.66 65.2925 38.345 C 66.4777 37.2181 68.3532 37.2642 69.4815 38.4479 C 70.6098 39.6317 70.5637 41.5048 69.3784 42.6317 C 59.3068 52.2077 48.8763 54.4049 39.7647 52.977 C 30.8236 51.5758 23.4256 46.7373 18.98 42.6706 C 17.7733 41.5667 17.6911 39.6948 18.7963 38.4896 Z" stroke-linecap="round" /></g></g></g></svg>