<svg viewBox = "0 0 88 88" width="88" height="88" xmlns="http://www.w3.org/2000/svg"><g transform="matrix(1 0 0 1 44 44)"  ><g style=""   ><g transform="matrix(1 0 0 1 0.5 14.53)" clip-path="url(#CLIPPATH_517)"  ><clipPath id="CLIPPATH_517" ><rect transform="matrix(1 0 0 1 0 -14.53)" id="clip0_95_70" x="-32.5" y="-40" rx="0" ry="0" width="65" height="80" /></clipPath><path style="stroke: none; stroke-width: 1; stroke-dasharray: none; stroke-linecap: butt; stroke-dashoffset: 0; stroke-linejoin: miter; stroke-miterlimit: 4; fill: rgb(99,106,232); fill-rule: nonzero; opacity: 1;"  transform=" translate(-44.5, -58.53)" d="M 71.8247 33.0238 L 44.4999 60.8866 L 17.175 33.0238 C 9.10179 45.8998 10.5508 63.103 21.5222 74.2903 C 34.2531 87.2718 54.8502 87.2718 67.4776 74.2903 C 78.4489 63.103 79.898 45.7943 71.8247 33.0238 Z" stroke-linecap="round" /></g><g transform="matrix(1 0 0 1 0.4 -22.62)" clip-path="url(#CLIPPATH_518)"  ><clipPath id="CLIPPATH_518" ><rect transform="matrix(1 0 0 1 0.1 22.62)" id="clip0_95_70" x="-32.5" y="-40" rx="0" ry="0" width="65" height="80" /></clipPath><path style="stroke: none; stroke-width: 1; stroke-dasharray: none; stroke-linecap: butt; stroke-dashoffset: 0; stroke-linejoin: miter; stroke-miterlimit: 4; fill: rgb(232,97,140); fill-rule: nonzero; opacity: 1;"  transform=" translate(-44.4, -21.38)" d="M 44.396 3.98786 L 27.3433 21.3763 L 44.396 38.7648 L 61.4488 21.3763 L 44.396 3.98786 Z" stroke-linecap="round" /></g></g></g></svg>