<svg viewBox = "0 0 88 88" width="88" height="88" xmlns="http://www.w3.org/2000/svg"><g transform="matrix(1 0 0 1 44 44)"  ><g style=""   ><g transform="matrix(1 0 0 1 0.96 5.56)"  ><path style="stroke: none; stroke-width: 1; stroke-dasharray: none; stroke-linecap: butt; stroke-dashoffset: 0; stroke-linejoin: miter; stroke-miterlimit: 4; fill: rgb(34,204,178); fill-rule: nonzero; opacity: 1;"  transform=" translate(-44.96, -49.56)" d="M 73.6776 76.2579 C 32.3873 74.9677 31.0968 18.1935 68.5162 20.7741 C 34.9676 6.58062 2.71007 40.129 22.0648 76.2579 C 29.8066 81.4193 49.1613 85.2902 73.6776 76.2579 Z" stroke-linecap="round" /></g><g transform="matrix(1 0 0 1 4.22 2.85)"  ><path style="stroke: none; stroke-width: 1; stroke-dasharray: none; stroke-linecap: butt; stroke-dashoffset: 0; stroke-linejoin: miter; stroke-miterlimit: 4; fill: rgb(232,97,140); fill-rule: evenodd; opacity: 1;"  transform=" translate(-48.22, -46.85)" d="M 73.6773 76.258 C 73.6774 76.2579 73.6775 76.2579 73.6776 76.2579 C 73.5893 76.2551 73.5011 76.2521 73.4131 76.2488 C 73.5011 76.2522 73.5892 76.2552 73.6773 76.258 Z M 61.7566 74.0645 C 42.7686 67.6873 27.4389 48.7233 22.7677 33.0756 C 32.0845 19.5735 50.106 12.9852 68.5162 20.7741 C 35.1157 18.4706 32.5566 63.4574 61.7566 74.0645 Z" stroke-linecap="round" /></g><g transform="matrix(1 0 0 1 0 0)"  ><path style="stroke: none; stroke-width: 1; stroke-dasharray: none; stroke-linecap: butt; stroke-dashoffset: 0; stroke-linejoin: miter; stroke-miterlimit: 4; fill: rgb(99,106,232); fill-rule: evenodd; opacity: 1;"  transform=" translate(-44, -44)" d="M 5.86695 13.3526 C 4 17.0167 4 21.8133 4 31.4064 L 4 56.5936 C 4 66.1867 4 70.9833 5.86695 74.6474 C 7.50917 77.8704 10.1296 80.4908 13.3526 82.133 C 17.0167 84 21.8133 84 31.4064 84 L 56.5936 84 C 66.1867 84 70.9833 84 74.6474 82.133 C 77.8704 80.4908 80.4908 77.8704 82.133 74.6474 C 84 70.9833 84 66.1867 84 56.5936 L 84 31.4064 C 84 21.8133 84 17.0167 82.133 13.3526 C 80.4908 10.1296 77.8704 7.50917 74.6474 5.86695 C 70.9833 4 66.1867 4 56.5936 4 L 31.4064 4 C 21.8133 4 17.0167 4 13.3526 5.86695 C 10.1296 7.50917 7.50917 10.1296 5.86695 13.3526 Z M 15.7554 26.876 C 14.3226 30.4531 14.3226 34.9687 14.3226 44 C 14.3226 53.0313 14.3226 57.5469 15.7554 61.124 C 17.7865 66.195 21.805 70.2135 26.876 72.2447 C 30.4531 73.6774 34.9687 73.6774 44 73.6774 C 53.0313 73.6774 57.5469 73.6774 61.124 72.2447 C 66.195 70.2135 70.2135 66.195 72.2447 61.124 C 73.6774 57.5469 73.6774 53.0313 73.6774 44 C 73.6774 34.9687 73.6774 30.4531 72.2447 26.876 C 70.2135 21.805 66.195 17.7865 61.124 15.7554 C 57.5469 14.3226 53.0313 14.3226 44 14.3226 C 34.9687 14.3226 30.4531 14.3226 26.876 15.7554 C 21.805 17.7865 17.7865 21.805 15.7554 26.876 Z" stroke-linecap="round" /></g></g></g></svg>