<svg viewBox = "0 0 88 88" width="88" height="88" xmlns="http://www.w3.org/2000/svg"><g transform="matrix(1 0 0 1 44 44)"  ><path style="stroke: none; stroke-width: 1; stroke-dasharray: none; stroke-linecap: butt; stroke-dashoffset: 0; stroke-linejoin: miter; stroke-miterlimit: 4; fill: rgb(99,106,232); fill-rule: evenodd; opacity: 1;"  transform=" translate(-44, -44)" d="M 46.2962 4.45672 C 44.826 3.84776 43.1741 3.84776 41.704 4.45672 L 17.6623 14.4151 C 16.1921 15.024 15.0241 16.1921 14.4151 17.6622 L 4.45673 41.7038 C 3.84776 43.174 3.84776 44.8259 4.45673 46.296 L 14.4151 70.3376 C 15.0241 71.8078 16.1921 72.9758 17.6623 73.5848 L 41.704 83.5431 C 43.1741 84.1521 44.826 84.1521 46.2962 83.5431 L 70.3379 73.5848 C 71.808 72.9758 72.9761 71.8078 73.585 70.3376 L 83.5434 46.296 C 84.1524 44.8259 84.1524 43.174 83.5434 41.7038 L 73.585 17.6622 C 72.9761 16.1921 71.808 15.024 70.3379 14.4151 L 46.2962 4.45672 Z M 45.9042 37.8032 L 49.6206 22.0262 C 49.7576 21.445 49.3167 20.8881 48.7195 20.8881 L 38.9955 20.8881 C 38.3983 20.8881 37.9574 21.445 38.0943 22.0262 L 41.8107 37.8033 C 41.9407 38.3551 41.1971 38.6631 40.8989 38.181 L 32.3707 24.397 C 32.0565 23.8892 31.3509 23.8072 30.9287 24.2295 L 24.0528 31.1053 C 23.6306 31.5275 23.7126 32.2331 24.2204 32.5473 L 38.0043 41.0754 C 38.4864 41.3737 38.1784 42.1173 37.6266 41.9873 L 21.8495 38.2709 C 21.2683 38.134 20.7114 38.5749 20.7114 39.1721 L 20.7114 48.896 C 20.7114 49.4932 21.2683 49.9341 21.8495 49.7971 L 37.6265 46.0808 C 38.1783 45.9508 38.4863 46.6944 38.0042 46.9927 L 24.2204 55.5206 C 23.7126 55.835 23.6306 56.5405 24.0528 56.9626 L 30.9287 63.8386 C 31.3509 64.2608 32.0565 64.1789 32.3707 63.671 L 40.8989 49.8871 C 41.1971 49.405 41.9407 49.713 41.8107 50.2648 L 38.0943 66.0419 C 37.9574 66.6231 38.3983 67.18 38.9955 67.18 L 48.7195 67.18 C 49.3164 67.18 49.7576 66.6231 49.6206 66.0419 L 45.9042 50.2649 C 45.7742 49.713 46.5178 49.405 46.8161 49.8871 L 55.3441 63.671 C 55.6585 64.1789 56.3639 64.2608 56.7861 63.8386 L 63.6621 56.9629 C 64.0843 56.5405 64.0024 55.835 63.4945 55.5209 L 49.7105 46.9926 C 49.2284 46.6943 49.5364 45.9508 50.0882 46.0807 L 65.8654 49.7971 C 66.4466 49.9341 67.0035 49.4932 67.0035 48.896 L 67.0035 39.1721 C 67.0035 38.575 66.4466 38.134 65.8654 38.2709 L 50.0883 41.9873 C 49.5365 42.1173 49.2285 41.3737 49.7106 41.0755 L 63.4945 32.5473 C 64.0024 32.2331 64.0843 31.5275 63.6621 31.1053 L 56.7861 24.2294 C 56.3639 23.8072 55.6585 23.8892 55.3441 24.397 L 46.8161 38.1809 C 46.5178 38.663 45.7742 38.355 45.9042 37.8032 Z M 46.5028 44.034 C 46.5028 45.495 45.3184 46.6794 43.8574 46.6794 C 42.3965 46.6794 41.2122 45.495 41.2122 44.034 C 41.2122 42.5731 42.3965 41.3888 43.8574 41.3888 C 45.3184 41.3888 46.5028 42.5731 46.5028 44.034 Z" stroke-linecap="round" /></g></svg>