<svg xmlns="http://www.w3.org/2000/svg" class="w-6 h-6" width="24" height="24" viewBox="0 0 24 24" fill="none"><path d="M14.7418 1.10962C16.1416 0.854627 17.5861 1.03278 18.8824 1.61939L18.9899 1.67603C19.2321 1.82345 19.4022 2.06814 19.4537 2.35084C19.5125 2.67377 19.4095 3.00545 19.1774 3.23755L15.4166 6.99732L15.4137 6.99927L16.9996 8.58521L20.7633 4.82252L20.8541 4.74146C21.0774 4.56705 21.3666 4.49473 21.649 4.54615C21.972 4.60499 22.2461 4.81839 22.3815 5.11744C22.9681 6.41373 23.1452 7.85826 22.8903 9.25806C22.6352 10.6579 21.9598 11.9472 20.9537 12.9534C19.9476 13.9595 18.6583 14.6348 17.2584 14.8899C16.0909 15.1026 14.8928 15.0134 13.775 14.6379L7.32678 21.0872C6.77809 21.6358 6.04631 21.959 5.27502 21.9973L5.11975 22.0012C4.29201 22.0012 3.49803 21.6725 2.91272 21.0872C2.32742 20.5018 1.9987 19.7079 1.99866 18.8801C1.99866 18.0524 2.32748 17.2584 2.91272 16.6731L9.36096 10.2239C8.98584 9.10648 8.89734 7.90856 9.10999 6.74146C9.36507 5.34163 10.0404 4.05228 11.0465 3.04615C12.0527 2.04008 13.342 1.36467 14.7418 1.10962ZM3.99866 18.8801C3.9987 19.1775 4.11655 19.4629 4.32678 19.6731C4.53702 19.8833 4.82244 20.0012 5.11975 20.0012L5.23108 19.9954C5.48757 19.9698 5.72882 19.8569 5.91272 19.6731L12.8229 12.7629L12.9401 12.6624C13.2277 12.4522 13.6103 12.4088 13.942 12.5588C14.868 12.9779 15.9001 13.1053 16.9 12.9231C17.8998 12.7409 18.8201 12.2578 19.5387 11.5393C20.2574 10.8206 20.7403 9.89959 20.9225 8.89966C21.0105 8.41648 21.0247 7.92611 20.9703 7.44361L18.4 10.0139C18.0262 10.3804 17.5231 10.5862 16.9996 10.5862C16.4763 10.5861 15.974 10.3803 15.6002 10.0139L15.5924 10.0071L13.9928 8.40748L13.986 8.39966C13.6196 8.02588 13.4138 7.52362 13.4137 7.00025C13.4137 6.47674 13.6195 5.97371 13.986 5.59986L16.5563 3.02857C16.0738 2.97419 15.5834 2.98938 15.1002 3.0774C14.1003 3.25959 13.1793 3.74249 12.4606 4.46119C11.7421 5.17977 11.26 6.10019 11.0778 7.09986C10.8956 8.09978 11.022 9.13188 11.441 10.0579C11.6126 10.437 11.5312 10.8827 11.2369 11.177L4.32678 18.0872C4.11661 18.2974 3.99866 18.5828 3.99866 18.8801Z" fill="#FF5724FF" style="fill-opacity:1;"/></svg>