<svg xmlns="http://www.w3.org/2000/svg" class="w-6 h-6" width="24" height="24" viewBox="0 0 24 24" fill="none"><path d="M13 18V6C13 5.73478 12.8946 5.48051 12.707 5.29297C12.5429 5.12883 12.3276 5.02757 12.0986 5.00488L12 5H4C3.73478 5 3.48051 5.10543 3.29297 5.29297C3.10543 5.48051 3 5.73478 3 6V17H5C5.55228 17 6 17.4477 6 18C6 18.5523 5.55228 19 5 19H3C2.46957 19 1.96101 18.7891 1.58594 18.4141C1.25765 18.0858 1.05515 17.6553 1.00977 17.1973L1 17V6C1 5.20435 1.3163 4.44152 1.87891 3.87891C2.44152 3.3163 3.20435 3 4 3H12L12.2969 3.01465C12.9835 3.08291 13.6289 3.38671 14.1211 3.87891C14.6837 4.44152 15 5.20435 15 6V18C15 18.5523 14.5523 19 14 19C13.4477 19 13 18.5523 13 18Z" fill="#00D0FFFF" style="fill-opacity:1;"/><path d="M15 17C15.5523 17 16 17.4477 16 18C16 18.5523 15.5523 19 15 19H9C8.44772 19 8 18.5523 8 18C8 17.4477 8.44772 17 9 17H15Z" fill="#00D0FFFF" style="fill-opacity:1;"/><path d="M21 17V13.3516L20.999 13.3506L17.5195 9.00098L17.5186 9H14C13.4477 9 13 8.55228 13 8C13 7.44772 13.4477 7 14 7H17.5215L17.7451 7.0127C17.9673 7.03803 18.1843 7.1007 18.3867 7.19824C18.6565 7.32828 18.8931 7.51803 19.0801 7.75195L19.0811 7.75098L22.5596 12.1006L22.6602 12.2373C22.8801 12.5649 22.9993 12.9516 23 13.3486V17C23 17.5304 22.7891 18.039 22.4141 18.4141C22.039 18.7891 21.5304 19 21 19H19C18.4477 19 18 18.5523 18 18C18 17.4477 18.4477 17 19 17H21Z" fill="#00D0FFFF" style="fill-opacity:1;"/><path d="M18 18C18 17.4477 17.5523 17 17 17C16.4477 17 16 17.4477 16 18C16 18.5523 16.4477 19 17 19C17.5523 19 18 18.5523 18 18ZM20 18C20 19.6569 18.6569 21 17 21C15.3431 21 14 19.6569 14 18C14 16.3431 15.3431 15 17 15C18.6569 15 20 16.3431 20 18Z" fill="#00D0FFFF" style="fill-opacity:1;"/><path d="M8 18C8 17.4477 7.55228 17 7 17C6.44772 17 6 17.4477 6 18C6 18.5523 6.44772 19 7 19C7.55228 19 8 18.5523 8 18ZM10 18C10 19.6569 8.65685 21 7 21C5.34315 21 4 19.6569 4 18C4 16.3431 5.34315 15 7 15C8.65685 15 10 16.3431 10 18Z" fill="#00D0FFFF" style="fill-opacity:1;"/></svg>