<svg xmlns="http://www.w3.org/2000/svg" class="w-6 h-6" width="24" height="24" viewBox="0 0 24 24" fill="none"><path d="M17 12C17 9.23858 14.7614 7 12 7C9.23858 7 7 9.23858 7 12C7 14.7614 9.23858 17 12 17C14.7614 17 17 14.7614 17 12ZM19 12C19 15.866 15.866 19 12 19C8.13401 19 5 15.866 5 12C5 8.13401 8.13401 5 12 5C15.866 5 19 8.13401 19 12Z" fill="#FF5724FF" style="fill-opacity:1;"/><path d="M11 10C11 9.44772 11.4477 9 12 9C12.5523 9 13 9.44772 13 10V11.5859L13.707 12.293L13.7754 12.3691C14.0957 12.7619 14.0731 13.3409 13.707 13.707C13.3409 14.0731 12.7619 14.0957 12.3691 13.7754L12.293 13.707L11.293 12.707C11.1054 12.5195 11 12.2652 11 12V10Z" fill="#FF5724FF" style="fill-opacity:1;"/><path d="M8.8424 7.84924C8.73794 8.39154 8.21283 8.74666 7.67053 8.64221C7.12853 8.53767 6.77344 8.01336 6.87756 7.47131L8.8424 7.84924ZM13.3199 0.999634V1.00159C14.0172 0.992662 14.6964 1.22521 15.2399 1.66272C15.7878 2.10389 16.163 2.7238 16.3004 3.4137L17.111 7.4635L17.1256 7.56506C17.1743 8.0696 16.8335 8.53871 16.3258 8.64026C15.7843 8.74843 15.2573 8.39757 15.149 7.85608L14.3395 3.80627C14.2937 3.57608 14.1678 3.36751 13.985 3.22034C13.825 3.09167 13.6299 3.01546 13.4264 3.00159L13.3395 2.99963H10.6207C10.3861 2.99516 10.157 3.07319 9.97424 3.22034C9.79145 3.3675 9.66644 3.57512 9.62072 3.8053L8.8424 7.84924L6.87756 7.47131L7.65783 3.42053L7.65881 3.41565L7.72131 3.15979C7.89258 2.57234 8.24043 2.04907 8.72033 1.66272C9.26389 1.22516 9.94291 0.992606 10.6403 1.00159V0.999634H13.3199Z" fill="#FF5724FF" style="fill-opacity:1;"/><path d="M15.2296 16.1137C15.338 15.5723 15.8649 15.2213 16.4064 15.3296C16.9478 15.438 17.2989 15.9648 17.1906 16.5063L16.381 20.5561C16.2436 21.2462 15.8676 21.8658 15.3195 22.3071C14.7759 22.7447 14.097 22.9782 13.3996 22.9692V22.9702H10.6798V22.9692C9.98272 22.9781 9.3043 22.7445 8.76089 22.3071C8.21277 21.8659 7.83674 21.2462 7.69937 20.5561L6.89956 16.5561L6.88491 16.4546C6.83639 15.9502 7.1762 15.4809 7.68374 15.3794C8.19149 15.2778 8.68604 15.5804 8.83511 16.0649L8.8605 16.1635L9.6603 20.1635L9.66128 20.1655L9.68179 20.2505C9.7389 20.4462 9.85486 20.6207 10.0148 20.7495C10.1976 20.8966 10.4267 20.9747 10.6613 20.9702H13.4191L13.507 20.9682C13.7104 20.9542 13.9056 20.8782 14.0656 20.7495C14.2483 20.6024 14.3733 20.3956 14.4191 20.1655V20.1635L15.2296 16.1137Z" fill="#FF5724FF" style="fill-opacity:1;"/></svg>